<?xml version="1.0" standalone="no"?>
<!DOCTYPE svg PUBLIC "-//W3C//DTD SVG 20010904//EN"
 "http://www.w3.org/TR/2001/REC-SVG-20010904/DTD/svg10.dtd">
<svg version="1.0" xmlns="http://www.w3.org/2000/svg"
 width="20.000000pt" height="20.000000pt" viewBox="0 0 20.000000 20.000000"
 preserveAspectRatio="xMidYMid meet">

<g transform="translate(0.000000,20.000000) scale(0.100000,-0.100000)"
fill="#000000" stroke="none">
<path d="M20 153 c0 -60 57 -119 124 -130 34 -5 36 -4 36 21 0 22 -4 26 -28
26 -15 0 -33 -5 -40 -12 -10 -10 -18 -6 -39 15 -24 23 -26 30 -15 47 21 34 15
60 -13 60 -21 0 -25 -5 -25 -27z m35 -3 c0 -7 -6 -15 -12 -17 -8 -3 -13 4 -13
17 0 13 5 20 13 18 6 -3 12 -11 12 -18z m115 -105 c0 -16 -9 -19 -34 -9 -20 8
-11 24 15 24 10 0 19 -7 19 -15z"/>
<path d="M126 166 c19 -8 36 -26 42 -43 8 -22 11 -24 11 -7 1 25 -38 64 -65
64 -13 -1 -10 -5 12 -14z"/>
<path d="M123 126 c25 -28 34 -27 17 3 -6 12 -17 21 -25 21 -9 0 -7 -7 8 -24z"/>
</g>
</svg>
