<?xml version="1.0" standalone="no"?>
<!DOCTYPE svg PUBLIC "-//W3C//DTD SVG 20010904//EN"
 "http://www.w3.org/TR/2001/REC-SVG-20010904/DTD/svg10.dtd">
<svg version="1.0" xmlns="http://www.w3.org/2000/svg"
 width="25.000000pt" height="25.000000pt" viewBox="0 0 25.000000 25.000000"
 preserveAspectRatio="xMidYMid meet">

<g transform="translate(0.000000,25.000000) scale(0.100000,-0.100000)"
fill="#000000" stroke="none">
<path d="M73 230 c-41 -17 -58 -58 -58 -140 l0 -75 69 -2 c108 -2 156 36 156
123 0 53 -53 104 -106 103 -22 0 -49 -4 -61 -9z m118 -39 c41 -41 40 -91 -2
-133 -29 -29 -33 -30 -87 -24 -31 4 -57 8 -59 9 -1 2 -5 28 -9 59 -6 54 -5 58
24 87 42 42 92 43 133 2z"/>
<path d="M73 164 c-10 -25 14 -63 52 -81 26 -12 38 -14 46 -6 16 16 1 35 -22
28 -27 -9 -49 12 -49 46 0 31 -17 39 -27 13z"/>
</g>
</svg>
